# xmcd CD database file
#
# Track frame offsets:
#	150
#	26042
#	64252
#	110542
#	143745
#	161467
#	191830
#	210787
#	257805
#	277375
#
# Disc length: 3913 seconds
#
# Revision: 0
# Processed by: cddbd v1.5.2PL0 Copyright (c) Steve Scherf et al.
# Submitted via: CDex 1.70beta2
#
DISCID=960f470a
DTITLE=Dave Hepler Trio - Birthday Wish
DYEAR=1994
DGENRE=Jazz
TTITLE0=Birthday Wish
TTITLE1=Dexters Tune
TTITLE2=Memories of Tomorrow
TTITLE3=Someone to Watch Over Me
TTITLE4=One Note Samba
TTITLE5=Whale Song
TTITLE6=A Child is Born
TTITLE7=Pavane for a Dead Princess - Sunday
TTITLE8=Blue Monk
TTITLE9=Con Alma
EXTD=YEAR: 1994
EXTT0=
EXTT1=
EXTT2=
EXTT3=
EXTT4=
EXTT5=
EXTT6=
EXTT7=
EXTT8=
EXTT9=
PLAYORDER=
